<svg xmlns="http://www.w3.org/2000/svg" viewBox="0 0 228 48" fill="none">
  <!-- Lightning bolt mark -->
  <g transform="translate(0, 9) scale(0.667)">
    <path d="M15.5 3L5.5 23h8L9.5 45 26 21h-8.5l5-18z" fill="#fba918"/>
  </g>

  <!-- "Elektrojob.ch" wordmark — path outlines (Nunito Black + Regular, no external font dependency) -->
  <g transform="translate(36,36)">
    <!-- E -->
    <path d="M0-22h12.5v3.8H4.2v5.2h7.5v3.6H4.2v5.6H13V0H0z" fill="#1e293b"/>
    <!-- l -->
    <path d="M15.5-22h4v22h-4z" fill="#1e293b"/>
    <!-- e -->
    <path d="M22.5-9.5c0-5.8 3.8-10 8.8-10 5.2 0 8.4 4 8.4 10.4v1.2H26.5c.3 3.2 2.5 5 5.4 5 2 0 3.6-.8 4.8-2.2l2.4 2.4c-1.8 2.2-4.4 3.4-7.6 3.4-5.4 0-9-3.8-9-10.2zm4-1.5h9.6c-.3-3-2.2-5-4.6-5-2.6 0-4.5 2-5 5z" fill="#1e293b"/>
    <!-- k -->
    <path d="M42-22h4v13.6L52.8-16h4.8l-7.6 8.6L57.8 0h-4.8l-7-7.2V0h-4z" fill="#1e293b"/>
    <!-- t -->
    <path d="M58-20.5h4v4.5h4v3.4h-4V-4c0 1.4.6 2 1.8 2 .8 0 1.4-.2 2.2-.5V1c-1 .4-2 .6-3.2.6-3.2 0-4.8-1.6-4.8-5.2v-9h-2.5V-16H58z" fill="#1e293b"/>
    <!-- r -->
    <path d="M68-16h4v3.2c1.2-2.2 3-3.6 5.4-3.6.6 0 1 .1 1.6.2v3.8c-.6-.2-1.2-.3-1.8-.3-2.8 0-5.2 2.4-5.2 6.4V0h-4z" fill="#1e293b"/>
    <!-- o -->
    <path d="M80.5-9.5c0-5.8 4-10.2 9.2-10.2 5.2 0 9.2 4.4 9.2 10.2 0 5.8-4 10.2-9.2 10.2-5.2 0-9.2-4.4-9.2-10.2zm14.2 0c0-3.8-2.2-6.6-5-6.6-2.8 0-5 2.8-5 6.6s2.2 6.6 5 6.6c2.8 0 5-2.8 5-6.6z" fill="#1e293b"/>
    <!-- j -->
    <path d="M102.5-16h4.2v17.5c0 4.2-2.2 6.5-5.8 6.5-1.2 0-2.2-.2-3-.5V4.2c.5.2 1 .3 1.6.3 1.6 0 3-.8 3-3.2zm0-6.5h4.2v4h-4.2z" fill="#fba918"/>
    <!-- o -->
    <path d="M110-9.5c0-5.8 4-10.2 9.2-10.2 5.2 0 9.2 4.4 9.2 10.2 0 5.8-4 10.2-9.2 10.2-5.2 0-9.2-4.4-9.2-10.2zm14.2 0c0-3.8-2.2-6.6-5-6.6-2.8 0-5 2.8-5 6.6s2.2 6.6 5 6.6c2.8 0 5-2.8 5-6.6z" fill="#fba918"/>
    <!-- b -->
    <path d="M130.5-22h4v9c1.4-2.2 3.6-3.6 6.2-3.6 4.8 0 8 4.2 8 10 0 5.8-3.2 10.2-8 10.2-2.6 0-4.8-1.4-6.2-3.6V0h-4zm9 18.6c-3 0-5-2.8-5-6.4 0-3.6 2-6.4 5-6.4 3 0 5 2.8 5 6.4 0 3.6-2 6.4-5 6.4z" fill="#fba918"/>
    <!-- . -->
    <path d="M152-4.2h4.5V0H152z" fill="#94a3b8"/>
    <!-- c -->
    <path d="M160-9c0-5 3.4-8.6 7.8-8.6 2.4 0 4.2 1 5.4 2.6l-2 2.2c-.8-1-1.8-1.6-3.2-1.6-2.6 0-4.6 2.2-4.6 5.4 0 3.2 2 5.4 4.6 5.4 1.4 0 2.4-.6 3.2-1.6l2 2.2c-1.2 1.6-3 2.6-5.4 2.6-4.4 0-7.8-3.6-7.8-8.6z" fill="#94a3b8"/>
    <!-- h -->
    <path d="M175-18.5h3.5v8.2c1.2-1.8 3-3 5.2-3 3.4 0 5.4 2.2 5.4 6V0h-3.5v-6.6c0-2.4-1.2-3.8-3.2-3.8-2.2 0-3.9 1.8-3.9 4.4V0H175z" fill="#94a3b8"/>
  </g>
</svg>
